<svg xmlns="http://www.w3.org/2000/svg" width="17" height="17" fill="none" viewBox="0 0 17 17">
    <path fill="#005FA3" d="M8.488 0c-3.435 0-6.23 2.795-6.23 6.23 0 1.579.994 3.808 2.956 6.628 1.433 2.061 2.843 3.656 2.902 3.723l.372.419.372-.42c.06-.066 1.47-1.661 2.903-3.722 1.961-2.82 2.956-5.05 2.956-6.628 0-3.435-2.795-6.23-6.23-6.23zm2.465 12.282c-.97 1.394-1.949 2.594-2.465 3.206-.514-.61-1.49-1.806-2.459-3.198-1.817-2.612-2.777-4.708-2.777-6.06C3.252 3.343 5.6.994 8.488.994c2.888 0 5.237 2.349 5.237 5.236 0 1.35-.959 3.444-2.772 6.052z"/>
    <path fill="#005FA3" d="M8.488 2.303c-2.027 0-3.677 1.65-3.677 3.677s1.65 3.677 3.677 3.677c2.028 0 3.678-1.65 3.678-3.677 0-2.028-1.65-3.677-3.678-3.677zm0 6.36c-1.48 0-2.683-1.204-2.683-2.683 0-1.48 1.204-2.683 2.683-2.683 1.48 0 2.684 1.203 2.684 2.683 0 1.48-1.204 2.683-2.684 2.683z"/>
</svg>
