<svg xmlns="http://www.w3.org/2000/svg" width="17" height="17" fill="none" viewBox="0 0 17 17">
    <path fill="#005FA3" d="M8.5 0C3.806 0 0 3.806 0 8.5S3.806 17 8.5 17 17 13.194 17 8.5C16.994 3.808 13.192.006 8.5 0zm.365 16.253v-1.496c0-.201-.164-.364-.365-.364-.201 0-.365.163-.365.364v1.496C4.137 16.062.938 12.863.748 8.865h1.495c.201 0 .364-.164.364-.365 0-.201-.163-.365-.364-.365H.748C.938 4.137 4.137.938 8.135.748v1.495c0 .201.164.364.365.364.201 0 .365-.163.365-.364V.748c3.998.19 7.197 3.389 7.388 7.387h-1.496c-.201 0-.364.164-.364.365 0 .201.163.365.364.365h1.499c-.19 4-3.392 7.198-7.391 7.388z"/>
    <path fill="#005FA3" d="M12.347 11.891l-3.482-3.54V4.67c0-.201-.164-.364-.365-.364-.201 0-.365.163-.365.364V8.5c0 .096.039.187.106.255l3.585 3.647c.14.144.372.146.516.005.144-.14.146-.372.005-.516z"/>
</svg>
