<svg xmlns="http://www.w3.org/2000/svg" width="23" height="17" fill="none" viewBox="0 0 23 17">
    <path fill="#005FA3" d="M19.611 0H2.732C1.226 0 0 1.225 0 2.732v11.536C0 15.775 1.225 17 2.732 17h16.875c1.507 0 2.732-1.225 2.732-2.732V2.736C22.343 1.23 21.119 0 19.611 0zm1.484 14.268c0 .818-.665 1.484-1.483 1.484H2.732c-.818 0-1.484-.666-1.484-1.484V2.736c0-.818.666-1.483 1.484-1.483h16.875c.818 0 1.483.665 1.483 1.483v11.532h.005z"/>
    <path fill="#005FA3" d="M14.088 8.357l5.463-4.9c.255-.23.278-.624.047-.882-.232-.255-.624-.278-.883-.047L11.18 9.29 9.71 7.978c-.005-.005-.01-.01-.01-.014-.032-.033-.064-.06-.101-.088L3.619 2.524c-.259-.231-.652-.208-.883.05-.23.26-.208.652.051.883l5.528 4.941-5.505 5.154c-.25.236-.263.629-.028.883.125.13.292.198.458.198.153 0 .305-.055.425-.166L9.253 9.24l1.516 1.354c.12.106.268.157.416.157.148 0 .3-.056.416-.162l1.558-1.396 5.556 5.279c.12.115.277.17.43.17.166 0 .328-.064.453-.193.235-.25.226-.647-.024-.883l-5.486-5.21z"/>
</svg>
