<svg xmlns="http://www.w3.org/2000/svg" width="10" height="18" fill="none" viewBox="0 0 10 18">
    <path fill="#005FA3" d="M8.837 0H1.163C.523 0 0 .523 0 1.163V16.05c0 .64.523 1.163 1.163 1.163h7.674c.64 0 1.163-.522 1.163-1.162V1.162C10 .523 9.477 0 8.837 0zM3.772.838h2.456c.077 0 .14.063.14.141 0 .078-.063.14-.14.14H3.772c-.077 0-.14-.062-.14-.14 0-.078.063-.14.14-.14zM5 16.633c-.321 0-.581-.26-.581-.582 0-.322.26-.581.581-.581.321 0 .581.26.581.581 0 .322-.26.582-.581.582zm4.19-1.57H.81V1.842h8.38v13.22z"/>
</svg>
