<svg xmlns="http://www.w3.org/2000/svg" width="143" height="31" fill="none" viewBox="0 0 143 31">
    <path fill="#005FA3" d="M2.996 6.276l-2.7-.504v-2.52h5.688c.816 0 1.896-.048 3.24-.144.288-.024.648-.048 1.08-.072.432-.024.936-.036 1.512-.036 2.616 0 4.668.24 6.156.72 1.488.48 2.52 1.164 3.096 2.052.6.888.9 2.004.9 3.348 0 1.8-.564 3.288-1.692 4.464-1.104 1.176-2.52 1.884-4.248 2.124 2.4 0 4.284.54 5.652 1.62 1.392 1.08 2.088 2.604 2.088 4.572 0 2.568-.888 4.596-2.664 6.084-1.752 1.488-4.74 2.232-8.964 2.232-.672 0-1.32-.024-1.944-.072-.624-.024-1.068-.036-1.332-.036C8 30.036 7.064 30 6.056 30H.224v-2.376l2.772-.396V6.276zm6.084 8.532c.432.048 1.404.072 2.916.072 1.32 0 2.292-.444 2.916-1.332.624-.912.936-2.184.936-3.816 0-1.512-.336-2.616-1.008-3.312-.672-.696-1.764-1.044-3.276-1.044-.36 0-.78.024-1.26.072-.48.024-.888.06-1.224.108v9.252zm0 12.636c.48.192 1.428.288 2.844.288 1.776 0 3.06-.468 3.852-1.404.816-.936 1.224-2.292 1.224-4.068 0-1.68-.372-2.88-1.116-3.6-.744-.72-1.92-1.08-3.528-1.08-1.32 0-2.412.024-3.276.072v9.792zm33.473 2.916c-.864 0-1.488-.18-1.872-.54-.384-.384-.576-.936-.576-1.656v-.792c-.576.792-1.44 1.5-2.592 2.124-1.152.6-2.316.9-3.492.9-2.352 0-4.032-.576-5.04-1.728-.984-1.176-1.476-3.132-1.476-5.868V12.792l-1.692-.468V10.02l6.768-.468h.036l.792.504v12.888c0 1.56.192 2.652.576 3.276.384.6 1.068.9 2.052.9 1.344 0 2.472-.456 3.384-1.368v-12.96l-2.232-.54V10.02l7.128-.468h.108l.864.504v17.46h1.908v2.304c-.816.168-1.572.3-2.268.396-.672.096-1.464.144-2.376.144zm8.552-26.352l-2.556-.468V1.344L55.785.48h.108l1.044.756.036 7.812-.288 3.204c.744-.696 1.728-1.308 2.952-1.836 1.224-.552 2.568-.828 4.032-.828 1.512 0 2.688.276 3.528.828.84.552 1.428 1.392 1.764 2.52.336 1.128.504 2.628.504 4.5V27.3l2.196.324V30H61.653v-2.376l1.908-.324v-9.828c0-1.68-.18-2.844-.54-3.492-.36-.672-1.092-1.008-2.196-1.008-.672 0-1.344.156-2.016.468-.672.288-1.236.648-1.692 1.08V27.3l1.98.324V30h-9.864v-2.376l1.872-.324V4.008zm34.083 26.388c-4.032 0-7.02-1.212-8.964-3.636-1.944-2.448-2.916-5.808-2.916-10.08 0-2.76.504-5.172 1.512-7.236 1.032-2.088 2.472-3.696 4.32-4.824 1.848-1.128 4.008-1.692 6.48-1.692 4.128 0 7.164 1.152 9.108 3.456 1.968 2.28 2.952 5.544 2.952 9.792 0 2.808-.516 5.292-1.548 7.452-1.032 2.136-2.496 3.804-4.392 5.004-1.872 1.176-4.056 1.764-6.552 1.764zm.324-25.092c-1.728 0-3.072.948-4.032 2.844-.936 1.896-1.404 4.728-1.404 8.496 0 3.84.468 6.696 1.404 8.568.936 1.848 2.268 2.772 3.996 2.772 1.704 0 3.024-1.008 3.96-3.024.96-2.04 1.44-4.956 1.44-8.748 0-3.84-.456-6.612-1.368-8.316-.912-1.728-2.244-2.592-3.996-2.592zm16.684 8.46l-2.124-.648v-2.808l6.552-.792h.108l.936.756v1.332l-.036.828c.84-.792 1.908-1.464 3.204-2.016 1.296-.552 2.652-.828 4.068-.828 1.44 0 2.568.264 3.384.792.84.504 1.44 1.32 1.8 2.448.384 1.128.576 2.664.576 4.608V27.3l2.016.288V30h-9.792v-2.376l1.764-.324v-9.828c0-1.152-.084-2.04-.252-2.664-.144-.648-.408-1.116-.792-1.404-.384-.288-.936-.432-1.656-.432-1.104 0-2.352.516-3.744 1.548V27.3l1.98.324V30h-9.972v-2.376l1.98-.324V13.764zm32.163 16.632c-3.288 0-5.724-.924-7.308-2.772-1.584-1.872-2.376-4.416-2.376-7.632 0-2.184.408-4.068 1.224-5.652.816-1.584 1.956-2.784 3.42-3.6 1.488-.84 3.228-1.26 5.22-1.26 2.52 0 4.44.636 5.76 1.908 1.344 1.272 2.04 3.072 2.088 5.4 0 1.536-.108 2.772-.324 3.708h-11.268c.12 2.04.612 3.6 1.476 4.68.888 1.056 2.124 1.584 3.708 1.584.888 0 1.812-.144 2.772-.432.984-.312 1.776-.66 2.376-1.044l1.008 2.196c-.624.696-1.692 1.356-3.204 1.98-1.488.624-3.012.936-4.572.936zm2.304-12.276l.036-1.512c0-1.512-.204-2.664-.612-3.456-.408-.792-1.104-1.188-2.088-1.188-1.008 0-1.788.444-2.34 1.332-.552.864-.852 2.472-.9 4.824h5.904z"/>
</svg>
